<?xml version="1.0" encoding="UTF-8" standalone="no"?>
<!-- Created with Inkscape (http://www.inkscape.org/) -->

<svg
   xmlns:dc="http://purl.org/dc/elements/1.1/"
   xmlns:cc="http://creativecommons.org/ns#"
   xmlns:rdf="http://www.w3.org/1999/02/22-rdf-syntax-ns#"
   xmlns:svg="http://www.w3.org/2000/svg"
   xmlns="http://www.w3.org/2000/svg"
   xmlns:sodipodi="http://sodipodi.sourceforge.net/DTD/sodipodi-0.dtd"
   xmlns:inkscape="http://www.inkscape.org/namespaces/inkscape"
   id="svg2"
   xml:space="preserve"
   viewBox="0 0 49.999999 49.999761"
   version="1.1"
   inkscape:version="0.48.4 r9939"
   width="100%"
   height="100%"
   sodipodi:docname="1392495957.svg"><sodipodi:namedview
     pagecolor="#ffffff"
     bordercolor="#666666"
     borderopacity="1"
     objecttolerance="10"
     gridtolerance="10"
     guidetolerance="10"
     inkscape:pageopacity="0"
     inkscape:pageshadow="2"
     inkscape:window-width="1920"
     inkscape:window-height="1025"
     id="namedview37"
     showgrid="false"
     fit-margin-top="0"
     fit-margin-left="0"
     fit-margin-right="0"
     fit-margin-bottom="0"
     inkscape:zoom="16.340078"
     inkscape:cx="25"
     inkscape:cy="24.99988"
     inkscape:window-x="0"
     inkscape:window-y="30"
     inkscape:window-maximized="1"
     inkscape:current-layer="svg2" /><defs
     id="defs6"><clipPath
       id="clipPath16"><path
         id="path18"
         d="M 0,600 H 800 V 0 H 0 v 600 z"
         inkscape:connector-curvature="0" /></clipPath></defs><g
     id="g10"
     transform="matrix(0.1190462,0,0,-0.1190462,-24.779467,60.713562)"><g
       id="g12"><g
         id="g14"
         clip-path="url(#clipPath16)"><g
           id="g20"
           transform="translate(628.15,144.6)"><path
             id="path22"
             style="fill:#4faf4f"
             d="m 0,0 c 0,-30.155 -24.445,-54.6 -54.6,-54.6 h -310.8 c -30.155,0 -54.6,24.445 -54.6,54.6 v 310.8 c 0,30.155 24.445,54.6 54.6,54.6 H -54.6 C -24.445,365.4 0,340.955 0,310.8 V 0 z"
             inkscape:connector-curvature="0" /></g><g
           id="g24"
           transform="translate(553.23,416.44)"><path
             id="path26"
             style="fill:#3d913d"
             d="m 0,0 -277.31,-277.31 49.135,-49.133 h 248.5 c 30.155,0 54.6,24.444 54.6,54.599 v 196.92 l -74.92,74.92 z"
             inkscape:connector-curvature="0" /></g><g
           id="g28"
           transform="translate(392.65,181.62)"><path
             id="path30"
             style="fill:#fbb03b"
             d="M 0,0 C -3.244,-3.247 -9.218,-2.572 -13.319,1.527 L -72.716,60.924 C -76.817,65.025 -77.49,71 -74.244,74.246 l 164.91,164.91 c 3.266,3.263 9.221,2.573 13.322,-1.528 l 59.397,-59.398 c 4.101,-4.101 4.791,-10.056 1.528,-13.319 L -0.007,0.001 z"
             inkscape:connector-curvature="0" /></g><g
           id="g32"
           transform="translate(418.65,207.76)"><path
             id="path34"
             style="fill:#fbb03b"
             d="m 0,0 c -3.244,-3.243 -9.218,-2.569 -13.319,1.526 l -59.397,59.33 c -4.101,4.097 -4.774,10.065 -1.528,13.308 l 164.91,164.73 c 3.266,3.259 9.221,2.57 13.322,-1.526 l 59.397,-59.332 c 4.101,-4.097 4.791,-10.045 1.528,-13.304 L -0.007,0.002 z"
             inkscape:connector-curvature="0" /></g><g
           id="g36"
           transform="translate(372.44,161.41)"><path
             id="path38"
             style="fill:#fcfad2"
             d="M 0,0 -96.52,-22.273 -74.246,74.247 22.273,96.521 0,0 z"
             inkscape:connector-curvature="0" /></g><g
           id="g40"
           transform="translate(313.2,228.68)"><path
             id="path42"
             style="fill:#fbb03b"
             d="m 0,0 c 3.93,-3.929 6.314,-8.845 7.209,-14.041 7.662,-0.302 15.062,-3.251 20.735,-8.923 5.919,-5.919 8.862,-13.716 8.944,-21.721 5.623,-0.714 10.949,-3.151 15.159,-7.364 4.187,-4.185 6.624,-9.476 7.352,-15.064 l 208.83,208.84 c 4.382,4.382 4.6,11.246 0.5,15.347 l -59.396,59.397 c -4.102,4.1 -10.968,3.883 -15.351,-0.499 L -14.668,7.302 c 5.438,-0.798 10.581,-3.22 14.67,-7.31"
             inkscape:connector-curvature="0" /></g><g
           id="g44"
           transform="translate(517.82,306.79)"><path
             id="path46"
             style="fill:#f2f2f2"
             d="M 0,0 -74.246,74.247 -37.123,111.37 37.123,37.121 0,0 z"
             inkscape:connector-curvature="0" /></g><g
           id="g48"
           transform="translate(495.75,328.86)"><path
             id="path50"
             style="fill:#e6e6e6"
             d="M 0,0 -24.156,24.154 12.965,61.278 37.121,37.123 0,0 z"
             inkscape:connector-curvature="0" /></g><g
           id="g52"
           transform="translate(517.85,306.76)"><path
             id="path54"
             style="fill:#cccccc"
             d="M 0,0 -22.101,22.103 15.021,59.226 37.123,37.123 0,0 z"
             inkscape:connector-curvature="0" /></g><g
           id="g56"
           transform="translate(286.2,183.67)"><path
             id="path58"
             style="fill:#666666"
             d="m 0,0 -10.276,-44.535 44.53,10.277 c -0.026,8.761 -3.377,17.511 -10.061,24.193 C 17.51,-3.38 8.759,-0.029 0,0"
             inkscape:connector-curvature="0" /></g><g
           id="g60"
           transform="translate(582.93,386.75)"><path
             id="path62"
             style="fill:#ff8a6a"
             d="m 0,0 -59.396,59.397 c -4.102,4.1 -10.968,3.883 -15.351,-0.5 l -39.01,-39.01 74.246,-74.247 39.011,39.012 C 3.882,-10.963 4.1,-4.099 0,0.003"
             inkscape:connector-curvature="0" /></g><g
           id="g64"
           transform="translate(350.01,185.36)"><path
             id="path66"
             style="fill:#db923b"
             d="m 0,0 c 0.024,-0.457 0.069,-0.909 0.072,-1.369 5.64,-0.698 10.976,-3.124 15.186,-7.337 4.187,-4.186 6.614,-9.486 7.326,-15.092 l 145.23,145.23 -23.19,23.19 L 0.004,0.002 z"
             inkscape:connector-curvature="0" /></g><g
           id="g68"
           transform="translate(471.59,353.02)"><path
             id="path70"
             style="fill:#f2a43d"
             d="m 0,0 -140.6,-140.59 c 3.734,-1.48 7.207,-3.685 10.19,-6.669 5.919,-5.919 8.844,-13.732 8.899,-21.764 0.229,-0.03 0.451,-0.079 0.679,-0.111 l 144.99,144.98 -24.16,24.15 z"
             inkscape:connector-curvature="0" /></g></g></g></g><metadata
     id="metadata35"><rdf:RDF><cc:Work><dc:format>image/svg+xml</dc:format><dc:type
           rdf:resource="http://purl.org/dc/dcmitype/StillImage" /><cc:license
           rdf:resource="http://creativecommons.org/licenses/publicdomain/" /><dc:publisher><cc:Agent
             rdf:about="http://openclipart.org/"><dc:title>Openclipart</dc:title></cc:Agent></dc:publisher><dc:title></dc:title></cc:Work><cc:License
         rdf:about="http://creativecommons.org/licenses/publicdomain/"><cc:permits
           rdf:resource="http://creativecommons.org/ns#Reproduction" /><cc:permits
           rdf:resource="http://creativecommons.org/ns#Distribution" /><cc:permits
           rdf:resource="http://creativecommons.org/ns#DerivativeWorks" /></cc:License></rdf:RDF></metadata></svg>