<?xml version="1.0" encoding="UTF-8" standalone="no"?>
<!-- Created with Inkscape (http://www.inkscape.org/) -->
<svg xmlns:inkscape="http://www.inkscape.org/namespaces/inkscape" xmlns:rdf="http://www.w3.org/1999/02/22-rdf-syntax-ns#" xmlns="http://www.w3.org/2000/svg" xmlns:sodipodi="http://sodipodi.sourceforge.net/DTD/sodipodi-0.dtd" xmlns:cc="http://creativecommons.org/ns#" xmlns:xlink="http://www.w3.org/1999/xlink" xmlns:dc="http://purl.org/dc/elements/1.1/" xmlns:svg="http://www.w3.org/2000/svg" xmlns:ns1="http://sozi.baierouge.fr" id="svg2" sodipodi:docname="trash can.svg" viewBox="0 0 157.38 184.59" version="1.1" inkscape:version="0.48.1 ">
  <defs id="defs4">
    <linearGradient id="linearGradient4113">
      <stop id="stop4115" style="stop-color:#ffffff" offset="0"/>
      <stop id="stop4121" style="stop-color:#d7ebff" offset=".5"/>
      <stop id="stop4117" style="stop-color:#d9d9d9" offset="1"/>
    </linearGradient>
    <linearGradient id="linearGradient2998" y2="452.68" gradientUnits="userSpaceOnUse" x2="273.93" y1="451.51" x1="375.58" inkscape:collect="always">
      <stop id="stop3032" style="stop-color:#0092ff" offset="0"/>
      <stop id="stop3034" style="stop-color:#92b4f7" offset=".5"/>
      <stop id="stop3036" style="stop-color:#0055ff" offset="1"/>
    </linearGradient>
    <linearGradient id="linearGradient3002" y2="452.68" gradientUnits="userSpaceOnUse" x2="260.32" y1="452.41" x1="394.48" inkscape:collect="always">
      <stop id="stop2994" style="stop-color:#0080ff" offset="0"/>
      <stop id="stop3024" style="stop-color:#346ad6" offset=".5"/>
      <stop id="stop2996" style="stop-color:#000080" offset="1"/>
    </linearGradient>
    <linearGradient id="linearGradient3011" y2="543.79" gradientUnits="userSpaceOnUse" x2="380.8" y1="542.36" x1="255" inkscape:collect="always">
      <stop id="stop3007" style="stop-color:#000089" offset="0"/>
      <stop id="stop3013" style="stop-color:#2f55c6" offset=".59990"/>
      <stop id="stop3009" style="stop-color:#007cff" offset="1"/>
    </linearGradient>
    <linearGradient id="linearGradient4119" y2="555.65" xlink:href="#linearGradient4113" gradientUnits="userSpaceOnUse" x2="296.18" y1="555.65" x1="360.74" inkscape:collect="always"/>
  </defs>
  <sodipodi:namedview id="base" bordercolor="#666666" inkscape:pageshadow="2" inkscape:window-y="-4" fit-margin-left="10" pagecolor="#ffffff" inkscape:window-height="881" inkscape:window-maximized="1" inkscape:zoom="1" inkscape:window-x="62" showgrid="false" borderopacity="1.0" inkscape:current-layer="layer1" inkscape:cx="78.644446" inkscape:cy="49.48875" fit-margin-top="10" fit-margin-right="10" fit-margin-bottom="10" inkscape:window-width="1374" inkscape:pageopacity="0.0" inkscape:document-units="px"/>
  <g id="layer1" inkscape:label="Layer 1" inkscape:groupmode="layer" transform="translate(-248.62 -425.53)">
    <g id="g4137">
      <path id="path4135" sodipodi:rx="55.5" sodipodi:ry="9" style="fill:#333333" sodipodi:type="arc" d="m116 168.59a55.5 9 0 1 1 -111 0 55.5 9 0 1 1 111 0z" transform="matrix(.97297 0 0 1 246.76 423.53)" sodipodi:cy="168.59375" sodipodi:cx="60.5"/>
      <path id="path3015" d="m327.31 437.53c-36.831 0-66.688 9.7133-66.688 21.688 0 0.0637-0.002 0.12395 0 0.1875l0.0312 0.1875c0.0342 0.64034 0.14231 1.2806 0.34375 1.9062l21.625 122.66h0.0625c0.8558 7.7667 20.495 13.969 44.594 13.969 24.098 0 43.738-6.2021 44.594-13.969h0.0937l21.6-122.55c0.27038-0.79303 0.4375-1.5898 0.4375-2.4062 0-11.974-29.856-21.688-66.688-21.688z" style="stroke:#333333;stroke-width:6;fill:none" inkscape:connector-curvature="0"/>
      <path id="path2990" d="m260.62 459.41 22 124.75h0.0625c0.8558 7.7667 20.495 13.969 44.594 13.969 24.098 0 43.738-6.2021 44.594-13.969h0.0937l22-124.75h-133.34z" style="fill-rule:evenodd;fill:url(#linearGradient3011)" inkscape:connector-curvature="0"/>
      <path id="path2985" sodipodi:rx="65.91246" sodipodi:ry="11.869292" style="fill-rule:evenodd;fill:url(#linearGradient2998)" sodipodi:type="arc" d="m392.95 450.56c0 6.5552-29.51 11.869-65.912 11.869s-65.912-5.3141-65.912-11.869c0-6.5552 29.51-11.869 65.912-11.869s65.912 5.3141 65.912 11.869z" transform="matrix(1.0118 0 0 1.8267 -3.5824 -363.82)" sodipodi:cy="450.56381" sodipodi:cx="327.0369"/>
      <path id="path3000" sodipodi:rx="65.91246" sodipodi:ry="11.869292" style="fill-rule:evenodd;fill:url(#linearGradient3002)" sodipodi:type="arc" d="m392.95 450.56c0 6.5552-29.51 11.869-65.912 11.869s-65.912-5.3141-65.912-11.869c0-6.5552 29.51-11.869 65.912-11.869s65.912 5.3141 65.912 11.869z" transform="matrix(-.94512 0 0 1.5859 636.4 -255.36)" sodipodi:cy="450.56381" sodipodi:cx="327.0369"/>
      <g id="g4105" style="fill:url(#linearGradient4119)" transform="matrix(1.0184 0 0 1.0184 -6.6605 -10.674)">
        <path id="path2742" style="fill:url(#linearGradient4119);fill-rule:evenodd" inkscape:connector-curvature="0" d="m342.41 536.89 16.602-10.133 7.4385 14.649c1.7968 8.0039-8.0494 10.941-15.955 10.464l-8.0854-14.98z"/>
        <path id="path2743" style="fill:url(#linearGradient4119);fill-rule:evenodd" inkscape:connector-curvature="0" d="m338.63 547.36-8.7322 15.751 8.7322 15.971 0.21561-6.3884h7.9776c2.9107 0.25699 6.6839-1.6889 8.0853-4.516l10.241-19.165c-3.3779 3.4145-7.7214 4.2957-12.721 4.2957h-13.476l-0.32342-5.9479z"/>
        <path id="path2751" style="fill:url(#linearGradient4119);fill-rule:evenodd" inkscape:connector-curvature="0" d="m319.12 527.94-16.73-9.9116 8.9252-13.755c5.977-5.49 13.27 1.8798 16.698 9.1735l-8.894 14.494z"/>
        <path id="path2752" style="fill:url(#linearGradient4119);fill-rule:evenodd" inkscape:connector-curvature="0" d="m329.91 526.23 17.717 0.1551 9.4283-15.552-5.5714 2.9083-3.8722-7.1262c-1.1929-2.7249-4.6895-5.1509-7.7889-5.0305l-21.371 0.15405c4.5614 1.36 7.4237 4.8123 9.8505 9.2784l6.5409 12.038-4.9327 3.1759z"/>
        <path id="path2753" style="fill:url(#linearGradient4119);fill-rule:evenodd" inkscape:connector-curvature="0" d="m289.59 527.12 5.1836 4.05-4.8787 9.3462c-2.4394 4.3096 1.7513 8.5079 4.4213 9.9693 2.6285 1.4386 6.7082 1.6096 10.52 1.5577l6.8606-11.215 5.1836 2.8039-8.9951-16.667-18.295 0.15577z"/>
        <path id="path2754" style="fill:url(#linearGradient4119);fill-rule:evenodd" inkscape:connector-curvature="0" d="m290.36 548.77 11.13 20.562c2.2361 2.8558 6.4541 3.5308 10.825 3.4269h11.739v-19.471l-22.259-0.15577c-3.4557 0.20769-7.9787-0.51924-11.434-4.3616z"/>
      </g>
    </g>
  </g>
  <metadata>
    <rdf:RDF>
      <cc:Work>
        <dc:format>image/svg+xml</dc:format>
        <dc:type rdf:resource="http://purl.org/dc/dcmitype/StillImage"/>
        <cc:license rdf:resource="http://creativecommons.org/licenses/publicdomain/"/>
        <dc:publisher>
          <cc:Agent rdf:about="http://openclipart.org/">
            <dc:title>Openclipart</dc:title>
          </cc:Agent>
        </dc:publisher>
        <dc:title>trashcan - papelera</dc:title>
        <dc:date>2011-07-13T02:16:02</dc:date>
        <dc:description>papelera, trash can with recycling logo  </dc:description>
        <dc:source>https://openclipart.org/detail/149233/trashcan---papelera-by-hector-gomez</dc:source>
        <dc:creator>
          <cc:Agent>
            <dc:title>hector gomez</dc:title>
          </cc:Agent>
        </dc:creator>
        <dc:subject>
          <rdf:Bag>
            <rdf:li>papelera</rdf:li>
            <rdf:li>paper basket</rdf:li>
            <rdf:li>recycle bin</rdf:li>
            <rdf:li>trash can</rdf:li>
          </rdf:Bag>
        </dc:subject>
      </cc:Work>
      <cc:License rdf:about="http://creativecommons.org/licenses/publicdomain/">
        <cc:permits rdf:resource="http://creativecommons.org/ns#Reproduction"/>
        <cc:permits rdf:resource="http://creativecommons.org/ns#Distribution"/>
        <cc:permits rdf:resource="http://creativecommons.org/ns#DerivativeWorks"/>
      </cc:License>
    </rdf:RDF>
  </metadata>
</svg>